<?xml version="1.0" encoding="UTF-8" standalone="no"?>
<!-- Created with Inkscape (http://www.inkscape.org/) -->
<svg
   xmlns:dc="http://purl.org/dc/elements/1.1/"
   xmlns:cc="http://creativecommons.org/ns#"
   xmlns:rdf="http://www.w3.org/1999/02/22-rdf-syntax-ns#"
   xmlns:svg="http://www.w3.org/2000/svg"
   xmlns="http://www.w3.org/2000/svg"
   xmlns:sodipodi="http://sodipodi.sourceforge.net/DTD/sodipodi-0.dtd"
   xmlns:inkscape="http://www.inkscape.org/namespaces/inkscape"
   width="800px"
   height="600px"
   id="svg3191"
   sodipodi:version="0.32"
   inkscape:version="0.46"
   inkscape:export-filename="C:\Dev\projects\triangle wars\media\background1.png"
   inkscape:export-xdpi="90"
   inkscape:export-ydpi="90"
   sodipodi:docname="background1.svg"
   inkscape:output_extension="org.inkscape.output.svg.inkscape">
  <defs
     id="defs3193">
    <inkscape:perspective
       sodipodi:type="inkscape:persp3d"
       inkscape:vp_x="0 : 300 : 1"
       inkscape:vp_y="0 : 1000 : 0"
       inkscape:vp_z="800 : 300 : 1"
       inkscape:persp3d-origin="400 : 200 : 1"
       id="perspective3199" />
    <filter
       inkscape:collect="always"
       id="filter3838">
      <feGaussianBlur
         inkscape:collect="always"
         stdDeviation="10.482757"
         id="feGaussianBlur3840" />
    </filter>
  </defs>
  <sodipodi:namedview
     id="base"
     pagecolor="#ffffff"
     bordercolor="#666666"
     borderopacity="1.0"
     inkscape:pageopacity="0.0"
     inkscape:pageshadow="2"
     inkscape:zoom="0.6"
     inkscape:cx="400"
     inkscape:cy="300"
     inkscape:current-layer="layer1"
     inkscape:document-units="px"
     showgrid="false" />
  <metadata
     id="metadata3196">
    <rdf:RDF>
      <cc:Work
         rdf:about="">
        <dc:format>image/svg+xml</dc:format>
        <dc:type
           rdf:resource="http://purl.org/dc/dcmitype/StillImage" />
      </cc:Work>
    </rdf:RDF>
  </metadata>
  <g
     id="layer1"
     inkscape:label="Layer 1"
     inkscape:groupmode="layer">
    <rect
       style="opacity:1;fill:#1a1a1a;fill-opacity:1;fill-rule:evenodd;stroke:#000000;stroke-width:1.52199996000000000;stroke-linecap:butt;stroke-linejoin:bevel;stroke-miterlimit:4;stroke-dasharray:none;stroke-dashoffset:0;stroke-opacity:1"
       id="rect3201"
       width="1130"
       height="723.33331"
       x="-158.33333"
       y="-38.333332"
       inkscape:export-xdpi="18"
       inkscape:export-ydpi="18"
       inkscape:export-filename="C:\Dev\projects\triangle wars\media\background1.png" />
    <path
       sodipodi:type="spiral"
       style="opacity:1;fill:#225500;fill-rule:evenodd;stroke:none;stroke-width:1px;stroke-linecap:butt;stroke-linejoin:miter;stroke-opacity:1;filter:url(#filter3838)"
       id="path3203"
       sodipodi:cx="368.33334"
       sodipodi:cy="255"
       sodipodi:expansion="1"
       sodipodi:revolution="29.6"
       sodipodi:radius="526.65082"
       sodipodi:argument="-30.693226"
       sodipodi:t0="0"
       d="M 368.33334,255 C 370.34057,256.77009 366.93759,258.579 365.39134,258.33615 C 361.20108,257.67802 360.20441,252.42631 361.66105,249.11599 C 364.26664,243.1946 371.92559,242.03924 377.15936,244.99156 C 384.84014,249.3242 386.17744,259.66825 381.67793,266.76802 C 375.68079,276.23091 362.56891,277.74912 353.62331,271.68073 C 342.3662,264.0443 340.66805,248.12981 348.31646,237.34796 C 357.57972,224.2897 376.31466,222.41207 388.92739,231.64697 C 403.79104,242.52998 405.84795,264.0958 395.02252,278.53605 C 382.52413,295.20788 358.12082,297.44399 341.85529,285.02532 C 323.37336,270.91444 320.95808,243.66919 334.97187,225.57994 C 350.69323,205.28654 380.78359,202.69209 400.69541,218.30238 C 422.8013,235.63277 425.57492,268.57055 408.36711,290.30407 C 389.42879,314.22322 353.64182,317.17604 330.08727,298.36991 C 304.35425,277.82449 301.22222,239.18699 321.62729,213.81192 C 343.77917,186.26456 385.26827,182.9533 412.46343,204.9578 C 441.82551,228.71561 445.31602,273.05718 421.7117,302.0721 C 396.34837,333.24922 349.15362,336.91898 318.31924,311.7145 C 285.32682,284.746 281.47779,234.6975 308.2827,202.04389 C 336.85607,167.23595 389.75883,163.20763 424.23146,191.61321 C 460.8551,221.79122 465.06272,277.54863 435.05628,313.84012 C 403.27384,352.27962 344.66142,356.66655 306.55122,325.05909 C 266.29572,291.67238 261.72948,230.20466 294.93811,190.27587 C 329.92892,148.20426 394.25222,143.45869 435.99948,178.26862 C 479.88731,214.8634 484.81221,282.0425 448.40087,325.60814 C 410.20223,371.31227 340.16713,376.41651 294.78319,338.40367 C 247.26268,298.60127 241.97909,225.71 281.59352,178.50784 C 322.99959,129.17088 398.7472,123.70794 447.7675,164.92403 C 498.92099,207.93369 504.56329,286.53777 461.74546,337.37617 C 417.13228,390.34622 335.67161,396.16788 283.01517,351.74826 C 228.22849,305.53162 222.22747,221.21425 268.24893,166.73982 C 316.06897,110.13647 403.24315,103.95608 459.53553,151.57944 C 517.95558,201.00283 524.31535,291.03391 475.09005,349.14419 C 424.06336,409.38099 331.1753,415.92014 271.24715,365.09285 C 209.19357,312.46291 202.47504,216.71779 254.90435,154.9718 C 309.13751,91.101408 407.73975,84.203494 471.30355,138.23486 C 536.99078,194.0712 544.06808,295.53064 488.43463,360.91222 C 430.99514,428.41631 326.67846,435.673 259.47912,378.43744 C 190.15814,319.39482 182.72206,212.22084 241.55976,143.20377 C 302.20547,72.065886 412.2368,64.45041 483.07158,124.89027 C 556.02639,187.13905 563.82127,300.02777 501.77922,372.68024 C 437.92739,447.452 322.18123,455.42627 247.7111,391.78203 C 171.12237,326.32717 162.9687,207.72354 228.21517,131.43575 C 295.27303,53.030036 416.73417,44.696965 494.8396,111.54568 C 575.06231,180.20653 583.57478,304.52521 515.12381,384.44826 C 444.85999,466.48798 317.68373,475.17986 235.94307,405.12661 C 152.08633,333.25984 143.21504,203.22598 214.87058,119.66773 C 288.34029,33.993944 421.23178,24.943252 506.60762,98.201092 C 594.09845,173.27373 603.32855,309.02287 528.4684,396.21629 C 451.79286,485.52417 313.18603,494.93368 224.17505,418.4712 C 133.05009,340.19276 123.46117,198.72823 201.52599,107.8997 C 281.40732,14.957667 425.72958,5.189334 518.37565,84.856504 C 613.13477,166.34071 623.08252,313.52071 541.81299,407.98431 C 458.72592,504.56053 308.68815,514.68769 212.40703,431.81579 C 114.01371,347.12587 103.70713,194.23032 188.18141,96.131677 C 274.47417,-4.0787534 430.22752,-14.564744 530.14367,71.511916 C 632.17122,159.40752 642.83663,318.01868 555.15757,419.75233 C 465.65914,523.59701 304.19015,534.44183 200.639,445.16038 C 94.977198,354.05912 83.952957,189.73229 174.83682,84.363653 C 267.54089,-23.115288 434.72558,-34.318948 541.9117,58.167328 C 651.20778,152.4742 662.59086,322.51676 568.50216,431.52036 C 472.59249,542.63359 299.69205,554.19609 188.87098,458.50497 C 75.940592,360.9925 64.198673,185.23416 161.49223,72.595629 C 260.60748,-42.151916 439.22373,-54.073256 553.67972,44.82274 C 670.24443,145.54078 682.34519,327.01493 581.84675,443.28838 C 479.52594,561.67026 295.19386,573.95044 177.10296,471.84955 C 56.903907,367.92597 44.4443,180.73596 148.14764,60.827606 C 253.67399,-61.188618 443.72195,-73.827648 565.44774,31.478152 C 689.28115,138.60726 702.0996,331.51317 595.19134,455.05641 C 486.45947,580.70699 290.6956,593.70487 165.33493,485.19414 C 37.867156,374.85952 24.689855,176.23768 134.80305,49.059582 C 246.74042,-80.225384 448.22024,-93.58211 577.21577,18.133564 C 708.31793,131.67367 721.85408,336.01148 608.53593,466.82443 C 493.39308,599.74379 286.19728,613.45936 153.56691,498.53873 C 18.83035,381.79314 4.9353473,171.73935 121.45847,37.291558 C 239.80678,-99.262202 452.71858,-113.33663 588.98379,4.7889762 C 727.35476,124.74002 741.60861,340.50983 621.88051,478.59245 C 500.32674,618.78063 281.69891,633.21391 141.79888,511.88332 C -0.20650193,388.72682 -14.819212,167.24097 108.11388,25.523534 C 232.8731,-118.29906 457.21697,-133.0912 600.75182,-8.5556118 C 746.39163,117.80632 761.3632,345.00823 635.2251,490.36048 C 507.26045,637.81751 277.20051,652.9685 130.03086,525.22791 C -19.243394,395.66055 -34.573816,162.74255 94.769291,13.75551 C 225.93936,-137.33597 461.7154,-152.84582 612.51984,-21.9002 C 765.42854,110.87258 781.11782,349.50667 648.56969,502.1285 C 514.19421,656.85443 272.70206,672.72314 118.26284,538.57249 C -38.280319,402.59431 -54.328457,158.2441 81.424703,1.9874861 C 219.00558,-156.3729 466.21386,-172.60047 624.28786,-35.244788 C 784.46548,103.93879 800.87248,354.00514 661.91428,513.89653 C 521.128,675.89138 268.20358,692.4778 106.49481,551.91708 C -57.317275,409.52811 -74.083132,153.74562 68.080115,-9.7805378 C 212.07177,-175.40986 470.71235,-192.35515 636.05589,-48.589376 C 803.50245,97.004973 820.62717,358.50363 675.25887,525.66455 C 528.06183,694.92835 263.70508,712.2325 94.726788,565.26167 C -76.354255,416.46195 -93.837836,149.24711 54.735527,-21.548562 C 205.13793,-194.44685 475.21087,-212.10986 647.82391,-61.933964 C 822.53944,90.071126 840.38188,363.00216 688.60345,537.43257 C 534.99568,713.96535 259.20655,731.98722 82.958764,578.60626 C -95.391259,423.39581 -113.59256,144.74857 41.390939,-33.316586 C 198.20407,-213.48386 479.70941,-231.86459 659.59194,-75.278551 C 841.57645,83.137254 860.13662,367.5007 701.94804,549.2006 C 541.92956,733.00237 254.708,751.74197 71.19074,591.95085 C -114.42828,430.32969 -133.34732,140.25002 28.046351,-45.08461 C 191.27018,-232.52088 484.20796,-251.61935 671.35996,-88.623139 C 860.61349,76.203358 879.89139,371.99926 715.29263,560.96862 C 548.86346,752.0394 250.20944,771.49674 59.422716,605.29543 C -133.46532,437.2636 -153.10209,135.75145 14.701763,-56.852633 C 184.33627,-251.55793 488.70654,-271.37413 683.12798,-101.96773 C 879.65054,69.269443 899.64617,376.49784 728.63722,572.73665 C 555.79738,771.07646 245.71085,791.25152 47.654692,618.64002 C -152.50238,444.19752 -172.85688,131.25286 1.3571752,-68.620657 C 177.40234,-270.59499 493.20513,-291.12892 694.89601,-115.31232 C 898.6876,62.33551 919.40096,380.99644 741.98181,584.50467 C 562.73132,790.11352 241.21226,811.00632 35.886668,631.98461 C -171.53945,451.13146 -192.61168,126.75426 -11.987413,-80.388681 C 170.46839,-289.63206 497.70374,-310.88373 706.66403,-128.6569 C 917.72468,55.40156 939.15577,385.49505 755.32639,596.27269 C 569.66527,809.1506 236.71364,830.76114 24.118644,645.3292 C -190.57653,458.06542 -212.3665,122.25565 -25.332001,-92.156705 C 47.272402,-175.38884 145.8648,-234.32666 253.51832,-258.98307"
       inkscape:export-filename="C:\Dev\projects\enemies at the surface\media\background1.png"
       inkscape:export-xdpi="18"
       inkscape:export-ydpi="18"
       transform="translate(35,23.333333)" />
  </g>
</svg>
